<?xml version="1.0" standalone="no"?>
<!DOCTYPE svg PUBLIC "-//W3C//DTD SVG 1.1//EN" "http://www.w3.org/Graphics/SVG/1.1/DTD/svg11.dtd" >
<!--
2013-9-30: Created.
-->
<svg>
<metadata>
Created by iconfont
</metadata>
<defs>

<font id="iconfont" horiz-adv-x="1024" >
  <font-face
    font-family="iconfont"
    font-weight="500"
    font-stretch="normal"
    units-per-em="1024"
    ascent="896"
    descent="-128"
  />
    <missing-glyph />
    
    <glyph glyph-name="quanji" unicode="&#58915;" d="M874.496 571.904l-159.232-158.72c-7.68-7.68-18.432-11.776-28.672-11.776-10.752 0-20.992 4.096-28.672 11.776l-159.232 158.72c-7.68 7.68-11.776 17.92-11.776 28.672s4.096 20.992 11.776 28.672l159.232 158.72c15.36 15.36 42.496 15.36 57.856 0l159.232-158.72c7.68-7.68 11.776-17.92 11.776-28.672-0.512-10.752-4.608-20.992-12.288-28.672z m-18.432 39.424l-159.232 158.72c-6.144 6.144-15.872 6.144-21.504 0l-159.232-158.72c-2.56-2.56-4.608-6.656-4.608-10.752s1.536-7.68 4.608-10.752l159.232-158.72c5.632-5.632 15.872-5.632 21.504 0l159.232 158.72c2.56 2.56 4.608 6.656 4.608 10.752s-1.536 8.192-4.608 10.752zM404.48 69.12H179.2c-22.528 0-40.96 18.432-40.96 40.96v224.256c0 22.528 18.432 40.96 40.96 40.96h225.28c22.528 0 40.96-18.432 40.96-40.96v-224.256c0-22.528-18.432-40.96-40.96-40.96z m15.36 265.216c0 8.192-6.656 15.36-15.36 15.36H179.2c-8.192 0-15.36-6.656-15.36-15.36v-224.256c0-8.192 6.656-15.36 15.36-15.36h225.28c8.192 0 15.36 6.656 15.36 15.36v224.256z m-15.36 103.936H179.2c-22.528 0-40.96 18.432-40.96 40.96V703.488c0 22.528 18.432 40.96 40.96 40.96h225.28c22.528 0 40.96-18.432 40.96-40.96v-224.768c0-22.016-18.432-40.448-40.96-40.448z m15.36 265.216c0 8.192-6.656 15.36-15.36 15.36H179.2c-8.192 0-15.36-6.656-15.36-15.36v-224.256c0-8.192 6.656-15.36 15.36-15.36h225.28c8.192 0 15.36 6.656 15.36 15.36V703.488z m153.6-328.192h225.28c22.528 0 40.96-18.432 40.96-40.96v-224.256c0-22.528-18.432-40.96-40.96-40.96h-225.28c-22.528 0-40.96 18.432-40.96 40.96v224.768c0 22.016 18.432 40.448 40.96 40.448z m-15.36-265.216c0-8.192 7.168-15.36 15.36-15.36h225.28c8.192 0 15.36 6.656 15.36 15.36v224.768c0 8.192-6.656 15.36-15.36 15.36h-225.28c-8.192 0-15.36-6.656-15.36-15.36v-224.768z"  horiz-adv-x="1024" />

    
    <glyph glyph-name="zhengxu" unicode="&#58889;" d="M53.931 758.815h333.363v-69.814H53.931v69.814z m0-339.82h479.973v-69.815H53.931v69.814z m0-339.996h836.375v-69.814H53.93v69.814z m916.312 307.357l-54.63 43.634-88.14-110.48 0.698 437.734h-69.814l-0.698-441.75-93.9 114.496-53.932-44.332 182.39-222.01 178.026 222.708z"  horiz-adv-x="1025" />

    
    <glyph glyph-name="plus" unicode="&#58881;" d="M791.46666666 712.53333333h-537.6a51.2 51.2 0 0 1-51.2-51.2v-537.6a51.2 51.2 0 0 1 51.2-51.2h537.6a51.2 51.2 0 0 1 51.2 51.2V661.33333333a51.2 51.2 0 0 1-51.2 51.2z m12.8-576a25.6 25.6 0 0 0-25.6-25.6h-512a25.6 25.6 0 0 0-25.6 25.6V648.53333333a25.6 25.6 0 0 0 25.6 25.6h512a25.6 25.6 0 0 0 25.6-25.6v-512zM714.66666666 411.73333333h-384v-0.1664c-0.5376 0.0384-1.0496 0.1664-1.6 0.1664a19.2 19.2 0 0 1 0-38.4c0.5376 0 1.0624 0.1152 1.6 0.1792v-0.1792h384a19.2 19.2 0 0 1 0 38.4zM502.67306666 585.32693333v-384h0.1664c-0.0384-0.5376-0.1664-1.0496-0.1664-1.6a19.2 19.2 0 0 1 38.4 0c0 0.5376-0.1152 1.0624-0.1792 1.6h0.1792v384a19.2 19.2 0 0 1-38.4 0z"  horiz-adv-x="1024" />

    
    <glyph glyph-name="shuqian" unicode="&#58893;" d="M211.953-30.023c-20.674 0-37.52 16.847-37.52 37.52v750.41c0 20.674 16.846 37.521 37.52 37.521h75.041v-825.45h-75.041z m637.848 637.848v75.041h37.52v-75.041h-37.52zM699.719 795.427v-262.643l-112.561 84.421-112.561-84.421V795.427h225.122z m150.082-787.93c0-20.674-16.847-37.52-37.521-37.52H324.514v825.45h112.561v-337.684l150.082 112.561L737.24 457.743V795.427h75.041c20.674 0 37.521-16.847 37.521-37.521h37.52c0 41.46-33.58 75.041-75.041 75.041H211.953c-41.46 0-75.041-33.581-75.041-75.041v-750.41c0-41.46 33.581-75.041 75.041-75.041H812.28c41.46 0 75.041 33.581 75.041 75.041V532.784h-37.52v-525.287z"  horiz-adv-x="1024" />

    
    <glyph glyph-name="fanxu" unicode="&#58979;" d="M640 130.56H76.8c-22.528 0-40.96-18.432-40.96-40.96s18.432-40.96 40.96-40.96h563.2c22.528 0 40.96 18.432 40.96 40.96s-18.432 40.96-40.96 40.96zM640 744.96H76.8c-22.528 0-40.96-18.432-40.96-40.96s18.432-40.96 40.96-40.96h563.2c10.752 0 21.504 4.096 29.184 11.776s11.776 17.92 11.776 29.184c0 10.752-4.096 20.992-11.776 29.184-8.192 7.68-18.432 11.776-29.184 11.776zM640 437.76H76.8c-22.528 0-40.96-18.432-40.96-40.96s18.432-40.96 40.96-40.96h563.2c22.528 0 40.96 18.432 40.96 40.96s-18.432 40.96-40.96 40.96zM783.36 716.8v-665.6c0-19.968 15.872-35.84 35.84-35.84h3.584c17.92 1.536 32.256 16.896 32.256 35.84V628.224l65.024-64.512c7.168-7.168 15.872-10.752 26.112-10.752h0.512c9.728 0 18.432 3.584 26.112 10.752 6.656 6.656 10.752 16.384 10.752 26.112s-3.584 19.456-10.752 26.112l-126.464 125.44c-6.656 6.656-16.384 10.752-26.112 10.752h-1.024c-19.968 0.512-35.84-15.36-35.84-35.328z"  horiz-adv-x="1024" />

    
    <glyph glyph-name="feedback" unicode="&#59287;" d="M947.9 444.4c-27.4 23.6-54.4 47.7-81.9 71.2-5.8 4.9-7.7 9.9-7.7 17.3 0.2 90.1 0.2 180.2 0.2 270.3 0 22.8-4.4 27.2-27.3 27.2H195.1c-22.5 0-27.4-4.9-27.4-27.4 0-92.5 0.1-184.9-0.2-277.4 0-4.5-1.5-10.6-4.6-13.2-27.3-22.7-54.8-45.1-82.8-66.9-10-7.8-14.3-16.3-14.3-29.2 0.4-150 0.2-300.1 0.2-450.2 0-2.4-0.1-4.7 0-7.1 0.5-12.5 6.6-19.1 19.2-20.5 4-0.4 8.1-0.4 12.2-0.4h828.2c3.4 0 6.8-0.1 10.2 0.1 16.1 0.9 22.3 7.4 22.3 23.7 0 153.1 0 306.2 0.1 459.3-0.1 9.7-3 16.9-10.3 23.2zM857.1 470c17.9-14.9 34-28.2 51.6-42.8-17.4-11.6-33.5-22.2-51.6-34.3V470zM206 784.1c0 2 0.3 4 0.5 7.3H818v-11.1c0-134.8-0.1-269.6 0.1-404.4 0-7.1-1.6-11.8-7.7-16-64.9-44.5-129.6-89.3-194.6-133.7-4.7-3.2-11.1-5.3-16.7-5.3-57.9-0.4-115.8-0.4-173.7 0-5.3 0-11.5 1.7-15.9 4.7-65.6 44.7-131 89.7-196.1 135.1-3.7 2.6-7.1 8.5-7.1 12.9-0.4 136.8-0.3 273.7-0.3 410.5z m-39.4-318.7v-74c-16.6 11.4-31.9 21.9-49 33.6 16.3 13.6 31.6 26.1 49 40.4zM105 388.7c91.9-62.9 182-124.5 273.3-187-91.6-68.8-181.5-136.3-273.3-205.4V388.7z m770.9-411.4H145.5c3 3.2 4.5 5.2 6.3 6.6 70.2 52.8 140.3 105.6 210.5 158.4 15.4 11.6 30.6 23.4 46.3 34.6 3.8 2.7 9.1 5 13.7 5 59.3 0.3 118.6 0.3 177.8 0.1 3.8 0 8.2-1.2 11.2-3.5 87-64.7 173.9-129.7 260.9-194.5 1.8-1.4 4.1-2.2 6.2-3.2-0.8-1.2-1.6-2.3-2.5-3.5z m43 19.4c-91.4 68.6-181.3 136.1-272.9 205 91.7 62.7 181.5 124.2 272.9 186.7v-391.7zM734.1 585.6H290.4v-36.9h443.7v36.9zM733.7 484.3H290.1v-37.1h443.6v37.1zM408.6 687.6H290.5V650h118.1v37.6z"  horiz-adv-x="1024" />

    
    <glyph glyph-name="home" unicode="&#59242;" d="M599.606642-127.921243c-20.818189 0-36.805929 16.013992-36.805928 36.779676v316.604493h-113.515575v-316.604493c0-20.791937-15.987739-36.753424-36.753423-36.753423h-195.05567a110.522795 110.522795 0 0 0-110.339028 110.312776V305.37537h-20.791937A85.976759 85.976759 0 0 0 0.000788 391.745915c0 22.367084 8.006996 43.15902 23.994735 59.14676l372.522201 394.915537c60.774411 63.950957 161.505044 67.153755 227.057401 6.405597 1.575147-3.202798 3.202798-4.804198 6.379344-6.405597l372.548454-394.915537c33.60313-33.60313 31.975479-87.945692-1.575147-121.548823-16.013992-15.961487-38.381075-23.968483-60.774411-23.968482h-31.975479v-322.957584a110.522795 110.522795 0 0 0-110.339028-110.339029H599.606642z m208.444417 64.213482c20.791937 0 38.381075 17.589138 38.381075 38.354823v367.534236c0 20.739432 16.013992 36.753424 36.779676 36.753424h68.781408a12.02362 12.02362 0 0 1 11.157289 7.980743c1.601399 4.804198 1.601399 9.608395-3.176546 14.412593L575.611907 805.904495c-33.60313 35.178277-87.945692 36.779676-123.123969 3.202798-1.575147 0-3.202798-1.575147-3.202799-3.202798L67.732097 401.328058a12.548669 12.548669 0 0 1 0-17.589139c3.202798-3.202798 6.379344-3.202798 9.582143-3.202798H136.513504c20.765684 0 36.753424-16.013992 36.753424-36.779676v-369.109383c0-20.765684 17.589138-38.354823 38.381075-38.354823H383.286491V219.31985299999997a73.349333 73.349333 0 0 0 73.559353 73.559353h100.9144a73.349333 73.349333 0 0 0 73.559352-73.559353l-1.601399-283.053867h178.385367z"  horiz-adv-x="1050" />

    
    <glyph glyph-name="share" unicode="&#59200;" d="M448 736a32 32 0 0 0 1.877333-63.946667L448 672H277.333333a74.666667 74.666667 0 0 1-74.624-72.106667L202.666667 597.333333v-469.333333a74.666667 74.666667 0 0 1 72.106666-74.624L277.333333 53.33333300000004h469.333334a74.666667 74.666667 0 0 1 74.624 72.106667L821.333333 128V437.333333a32 32 0 0 0 63.946667 1.877334L885.333333 437.333333v-309.333333c0-75.488-60.32-136.885333-135.392-138.624L746.666667-10.666666999999961H277.333333c-75.488 0-136.885333 60.32-138.624 135.392L138.666667 128V597.333333c0 75.488 60.32 136.885333 135.392 138.624L277.333333 736h170.666667z m272.917333 27.168l1.685334-1.130667 149.333333-106.666666c24.821333-17.728 13.024-56.448-16.757333-57.994667L853.333333 597.333333H704c-87.253333 0-158.186667-69.834667-159.968-156.650666L544 437.333333v-181.333333a32 32 0 0 0-63.946667-1.877333L480 256V437.333333c0 122.453333 98.272 221.973333 220.266667 223.968L704 661.333333h49.482667l-68.085334 48.629334a32 32 0 0 0-8.565333 42.954666l1.130667 1.685334a32 32 0 0 0 42.954666 8.565333z"  horiz-adv-x="1024" />

    
    <glyph glyph-name="help" unicode="&#59024;" d="M512-93.86699999999996C248.107-93.86699999999996 34.133 120.10699999999997 34.133 384S248.107 861.867 512 861.867 989.867 647.893 989.867 384 775.893-93.86699999999996 512-93.86699999999996z m0 63.68c228.693 0 414.187 185.387 414.187 414.187S740.693 798.187 512 798.187 97.813 612.693 97.813 384 283.307-30.187000000000012 512-30.187000000000012zM524.373 617.6c43.52 0 78.827-11.52 106.027-36.053 27.2-23.787 40.747-56.427 40.747-97.174 0-33.28-8.854-61.12-25.814-82.88-6.08-7.466-25.173-25.173-57.066-53.013-12.907-10.88-22.4-23.147-28.587-35.307-7.467-13.546-10.88-28.586-10.88-44.906v-11.52h-72.747v11.52c0 25.173 4.054 46.933 13.547 64.533 8.853 18.987 34.667 46.933 76.8 84.267l11.52 12.906c12.267 15.68 18.987 31.894 18.987 49.6 0 23.787-6.827 42.134-19.734 55.68-13.546 13.547-33.28 20.374-57.813 20.374-30.613 0-53.013-9.494-66.56-29.227-12.267-16.32-18.347-39.467-18.347-69.333h-71.36c0 49.6 14.294 88.32 42.774 116.906 28.8 29.334 68.266 43.627 118.506 43.627z m-12.16-397.547c14.294 0 26.454-4.053 36.054-13.546 9.493-8.854 14.293-20.374 14.293-34.667 0-14.293-5.44-25.813-14.933-35.307-9.494-8.853-21.76-13.546-35.307-13.546s-25.813 4.8-35.307 14.293c-9.493 9.493-14.293 21.12-14.293 34.667 0 14.293 4.8 25.813 14.293 34.666 9.28 9.387 21.547 13.44 35.2 13.44z"  horiz-adv-x="1024" />

    
    <glyph glyph-name="weibo" unicode="&#58888;" d="M2.778359 896zM763.377135 393.466074q-15.744776 3.155041-20.445007 9.433743t-1.57752 11.548515l3.15504 5.237482q1.04027 1.04027 2.114772 3.155041t4.197212 8.929773 4.733512 13.630005 2.61779 16.785046-0.5363 18.900768-6.311983 19.404738-13.126986 18.900768q-14.703556 14.703556-38.305506 18.900768t-47.202949 0.5363-44.582307-9.433744-34.612263-11.012215l-13.630005-6.311983q-10.507294-3.155041-17.323247-4.197213t-10.507294 0.5363-5.774733 3.155041-1.57752 7.352253 1.040269 9.970044 2.61779 13.126986 3.155041 14.167256q0 12.588784-1.57752 23.600048t-6.815003 24.641269-15.208476 22.023478-25.17947 13.630005-39.346727 3.155041-54.554251-12.588784q-36.727034-12.588784-74.494339-37.231004t-65.564564-51.397309-50.89429-51.935511-35.686765-40.924246l-11.548515-16.785046q-34.612263-45.120508-51.397309-90.240066t-15.744776-68.185207v-22.023479q6.311984-50.357039 30.952302-90.240065t58.750513-64.524295 80.269071-41.964516 88.662545-25.179471 89.703765-11.012215q77.651281-6.311984 161.042112 12.052485t155.269281 63.484025T849.383855 202.604166q17.826266 36.727034 18.364468 69.258758t-11.012215 52.97578-29.912032 36.190734-34.612263 23.09703-28.83753 9.433743zM443.405781 67.183686q-113.303814-5.237482-192.500285 44.079288t-79.19457 124.852328q0 74.494338 78.691551 128.51229t193.036585 59.287764 193.036585-37.767304 78.69155-117.500075q0-75.53651-80.269071-135.864543t-191.459064-65.564565zM412.99073 357.813541q-30.415051-3.155041-54.554252-14.167256t-37.767304-25.17947-23.097029-30.415051-13.126986-31.993522-4.733512-28.837531-1.04027-20.445007l1.04027-8.393474v-4.197212q0-3.155041 2.114771-12.588784t5.774733-17.323248 12.052484-17.323247 19.941989-15.744777q69.258758-33.571993 129.04859-20.445007t96.517817 60.327083q14.703556 17.826266 19.404737 44.079287t-2.114771 52.975781-23.600048 48.779518-49.820739 34.109245-76.073761 6.815002z m-37.769206-198.308299q-6.311984-1.04027-12.052484-0.5363t-10.507294 2.114771-9.433744 3.65806-7.855272 5.774733-5.774733 7.352253-4.197212 8.393474-1.577521 9.970043q0 11.548515 6.311984 22.559779t17.323248 18.900768 24.641268 8.929774q9.433743 1.04027 18.364468-0.5363t15.208477-5.237482 11.012215-8.393474 6.815002-11.012215 2.114771-13.630005q0-11.548515-6.815002-22.023479t-18.364468-17.826266-25.179471-8.393474z m89.166515 75.53651q-7.352253-5.237482-15.208476-4.733513t-11.012215 6.815003l-2.114771 4.197212q-1.04027 2.114771-1.04027 4.197213v4.197212q0 3.155041 1.04027 5.237482l2.114771 4.197212q1.04027 2.114771 3.155041 3.155041l3.155041 4.197213q8.393474 6.311984 16.248746 5.237482t11.012214-8.393474q3.155041-4.197212 2.617791-9.433744t-3.155041-9.970043-6.815003-8.929774z m372.443165 219.289606q6.311984 0 11.548515 3.155041t8.393474 7.855272 4.197212 9.970043q1.04027 1.04027 1.04027 3.155041 12.588784 119.615797-83.929984 136.400843-28.334511 5.237482-52.471811 1.04027-7.352253 0-12.588784-3.65806t-8.929774-9.433743-3.658059-12.052485q0-10.507294 7.352253-17.826266t17.826266-7.352253q81.847542 18.900768 88.125294-52.471811 2.114771-17.826266-2.114771-33.571993 0-10.507294 7.352253-17.826267t17.826267-7.352253z m-17.826266 295.833104q-46.160778 10.507294-123.812059-4.197212-1.04027 0-2.114771-1.04027l-1.04027-2.114771-1.04027-1.040269q-11.548515-3.155041-18.900768-13.126986t-7.352253-21.518559q0-15.744776 10.507294-26.21974t25.179471-10.507294h3.155041q1.04027 0 4.733512 1.04027t7.855272 1.57752 8.929774 2.114771 8.393474 3.155041 14.167255 1.577521 25.715771-1.577521 33.571993-7.855272 36.727034-15.744776 36.727035-26.21974 31.993522-38.808525q27.294242-61.906505 10.507294-119.615797 0-1.04027-0.5363-2.114771t-1.57752-5.237482-2.114772-7.855272-2.114771-9.433744-1.04027-9.970043q0-9.433743 5.237482-15.744776t13.126987-8.929774 18.364468-2.61779q29.375732 0 34.612263 35.686765 12.588784 40.924247 14.167255 78.15525t-5.237482 65.564565-20.445007 52.97578-31.489552 41.964517-39.883026 31.489552-42.501768 22.559778-42.501767 13.630005z"  horiz-adv-x="1049" />

    
    <glyph glyph-name="qq" unicode="&#58884;" d="M888.1 243.4c-17.4 101.1-90.6 167.3-90.6 167.3 10.5 91.8-27.9 108.1-27.9 108.1-8.1 284-252.7 279-257.9 278.9-5.2 0.1-249.8 5.1-257.9-278.9 0 0-38.3-16.3-27.9-108.1 0 0-73.2-66.2-90.6-167.3 0 0-9.3-170.8 83.7-20.9 0 0 20.9-56.9 59.3-108.1 0 0-68.6-23.3-62.8-83.7 0 0-2.3-67.4 146.4-62.8 0 0 104.6 8.1 136 52.3H525.5c31.4-44.2 136-52.3 136-52.3 148.7-4.6 146.4 62.8 146.4 62.8 5.8 60.4-62.8 83.7-62.8 83.7 38.4 51.1 59.3 108.1 59.3 108.1 93-149.9 83.7 20.9 83.7 20.9z"  horiz-adv-x="1024" />

    
    <glyph glyph-name="lock" unicode="&#58908;" d="M791.87 449.498h-46.706V546.8c0 126.252-104.601 228.542-233.529 228.542s-233.529-102.29-233.529-228.542v-97.303H231.4c-51.57 0-93.411-40.99-93.411-91.466v-335.211c0-50.477 41.84-91.466 93.411-91.466h560.47c51.57 0 93.411 40.868 93.411 91.466V358.154c0 50.476-41.84 91.344-93.411 91.344zM340.38 546.8c0 92.56 76.627 167.606 171.255 167.606S682.89 639.36 682.89 546.8v-97.303H340.38V546.8z m482.627-523.859c0-16.784-13.987-30.529-31.137-30.529H231.4c-17.15 0-31.137 13.623-31.137 30.53v335.21c0 16.786 13.988 30.53 31.137 30.53h560.47c17.15 0 31.137-13.623 31.137-30.53v-335.21z m0 0M511.635 297.46000000000004c-17.15 0-31.137-13.622-31.137-30.529V114.52999999999997c0-16.785 13.987-30.53 31.137-30.53s31.137 13.623 31.137 30.53V267.053c0 16.785-13.987 30.408-31.137 30.408z m40.016-15.082"  horiz-adv-x="1024" />

    
    <glyph glyph-name="xiaoniao" unicode="&#58914;" d="M579.765383 219.744006c-29.368888 0-60.468187 4.260024-95.062076 13.030781-97.230462 24.639167-229.641167 98.382705-310.372863 309.452911l-97.43717 48.718585 97.482195 51.305503c31.723515 109.701494 109.360733 180.25334 199.031009 180.25334 18.950607 0 38.454824-3.069919 57.971319-9.118682 80.963986-25.089421 120.274294-77.694523 154.958234-124.109646 39.304168-52.598962 73.377194-98.202603 158.813029-105.879446l84.386946 101.985766-18.377556-95.564519c28.525684 11.06194 60.538795 28.609595 94.03263 46.967708l41.916668 22.921036-11.885701-32.772404c-24.960485-68.833715-51.080376-109.959368-80.93738-147.545404 20.282952 4.3951 41.897226 7.966439 54.702879 4.696975l19.053961-4.825912-11.704576-15.797801C799.181675 305.397804 710.843744 219.744006 579.765383 219.744006zM134.627187 591.550033l60.72606-30.366611 1.821485-4.845355c42.25129-112.668059 127.552048-255.830643 294.003034-298.018487 32.451086-8.223289 61.434188-12.220323 88.588641-12.220323 114.012683 0 195.053418 74.033134 299.04077 211.230865-9.144264-1.505283-19.085684-3.712555-27.785833-5.649674-12.084223-2.690272-22.515806-5.006014-29.709649-5.379521l-30.623461-1.583055 19.922748 23.306822c33.828456 39.568181 60.900022 73.91136 86.696548 134.424572-35.648918-19.330254-69.354578-36.498262-99.8051-45.01831l-20.514219-5.739724 7.219425 37.566594-27.400047-33.114189-6.718005 0.430812c-102.468766 6.653537-144.359852 62.708204-184.867428 116.921943-33.854039 45.307905-68.865437 92.15998-141.643997 114.714671-16.994046 5.263887-33.873482 7.933693-50.172703 7.933693-78.936817 0-147.69276-65.307402-175.157275-166.373215l-1.499144-5.53404L134.627187 591.550033zM341.668637 521.957025 341.668637 521.957025c-1.88493 0-3.784186 0.051165-5.688559 0.167822-25.662473 1.493004-49.200562 12.895705-66.285682 32.097022-17.084097 19.208481-25.668613 43.918255-24.169469 69.580728 3.069919 52.701293 48.441269 93.77578 101.670587 90.455151 52.971445-3.095501 93.549629-48.705282 90.461291-101.67775C434.691263 561.763636 392.523885 521.957025 341.668637 521.957025zM341.507978 701.245388c-43.88551 0-80.268138-34.355459-82.829474-78.215386-1.293459-22.148439 6.113231-43.474141 20.862143-60.043514 14.742772-16.576537 35.063587-26.415626 57.212026-27.708062 45.957705-2.670829 85.08791 32.586163 87.7526 78.07417 2.663666 45.713134-32.361035 85.075631-78.08031 87.7526C344.776418 701.200362 343.136058 701.245388 341.507978 701.245388zM315.052442 615.122915m-20.020986 0a19.565 19.565 0 1 0 40.041972 0 19.565 19.565 0 1 0-40.041972 0ZM567.011918 216.916611 578.712401 195.889715 578.712401 129.996982 605.808526 193.224002 593.369216 216.916611ZM461.582727-54.504102c4.774747 31.895431 11.18883 63.322188 18.026562 94.629217l0.503467 2.305509 2.629897 2.248204c16.730033 14.299681 33.534767 28.500101 50.760081 42.139749 16.98893 13.953803 34.620495 27.052123 51.993165 40.496319l20.833491 16.122189 0.161682-26.620287c0.079818-13.178137-0.234337-26.356274-0.331551-39.534412-0.028653-13.178137-0.51984-26.356274-0.986467-39.534412l-14.663978 11.449773c17.667382 4.00522 35.449373 7.55507 53.245691 11.04352l8.844435 1.733481 2.476401-7.67889c5.76633-17.880229 11.06501-35.935444 16.271592-54.024427 5.127787-18.119683 10.05296-36.31509 14.273075-54.774511-8.958022 16.682961-17.210987 33.629935-25.26236 50.653657-7.972579 17.052374-15.852036 34.139541-23.263843 51.402717l11.317767-5.943362c-17.34504-5.296633-34.704406-10.532891-52.178383-15.312754l-14.124695-3.864004-0.542352 15.315824c-0.466628 13.178137-0.958838 26.356274-0.986467 39.534412-0.097214 13.178137-0.411369 26.356274-0.331551 39.534412l20.993127-10.497075c-17.769712-12.913101-35.281551-26.172079-53.43398-38.57455-17.917068-12.716626-36.255739-24.87248-54.667064-36.930097l3.130294 4.549619C485.535255 5.172045 474.379171-24.900877 461.582727-54.504102z"  horiz-adv-x="1024" />

    
    <glyph glyph-name="pause" unicode="&#59022;" d="M512-76.79999999999995a450.56 450.56 0 1 0 450.56 450.56 450.56 450.56 0 0 0-450.56-450.56z m0 839.68a389.12 389.12 0 1 1 389.12-389.12 389.12 389.12 0 0 1-389.12 389.12zM378.88 578.56h61.44v-399.36h-61.44zM583.68 578.56h61.44v-399.36h-61.44z"  horiz-adv-x="1024" />

    
    <glyph glyph-name="play" unicode="&#58880;" d="M250.7 196.20000000000005l-17 26.3c-4.3 4.4-10.2 7.1-16.7 7.1-12.9 0-23.4-10.5-23.4-23.4 0-7 3.3-13.1 8.2-17.4 1.8-2.9 3.6-5.9 5.4-8.8 0.2-0.6 0.7-1 1-1.6 2.1-3.4 8.2-8.8 8.2-8.8 3.7-2.4 7.8-4.1 12.4-4.1 12.9 0 22.9 10.5 23.4 23.4C252.3 191.39999999999998 251.7 193.5 250.7 196.20000000000005zM421 69.29999999999995l0.2 0.6c-49.4 15-93.4 42-129.1 77.5 0 0-12.9 11.9-22 11.9-12.9 0-23.4-10.5-23.4-23.4 0-7.5 3.8-13.9 9.3-18.2l-0.2-0.1c40-40.8 89.5-72.1 145.2-90.2 0.3-0.2 0.7-0.2 1.1-0.4 1.2-0.4 2.2-0.9 3.4-1.2l0.2 0.5c1.6-0.3 3.1-1 4.8-1 12.9 0 23.4 10.5 23.4 23.4C434 57.700000000000045 428.6 65.39999999999998 421 69.29999999999995zM512 867.6C244.9 867.6 28.4 651.1 28.4 384c0-267.1 216.5-483.6 483.6-483.6S995.6 116.89999999999998 995.6 384C995.6 651.1 779.1 867.6 512 867.6zM512-37.200000000000045C279.4-37.200000000000045 90.8 151.39999999999998 90.8 384 90.8 616.6 279.4 805.2 512 805.2S933.2 616.6 933.2 384C933.2 151.39999999999998 744.6-37.200000000000045 512-37.200000000000045zM672.7 416.8L450.2 548.3c-5.9 3.2-25.8 10.7-41.1 2.1s-18.8-19.5-18.8-26.7l0-285.6c0-4.8-1.9-20 19.7-26.9s36.4 1 40.2 2.3l222.5 131.5c8.1 4.8 18 15.5 18 37.1S680 411.6 672.7 416.8zM452.7 287.29999999999995L452.7 474.5l156-93.6L452.7 287.29999999999995z"  horiz-adv-x="1024" />

    
    <glyph glyph-name="mulu" unicode="&#59257;" d="M128 768a64 64 0 1 0 0-128 64 64 0 0 0 0 128z m0-320a64 64 0 1 0 0-128 64 64 0 0 0 0 128z m240 300.8h544a48 48 0 1 0 0-96H368a48 48 0 0 0 0 96z m0-320h544a48 48 0 1 0 0-96H368a48 48 0 0 0 0 96zM128 128a64 64 0 1 0 0-128 64 64 0 0 0 0 128z m240-19.2h544a48 48 0 1 0 0-96H368a48 48 0 1 0 0 96z"  horiz-adv-x="1024" />

    
    <glyph glyph-name="shezhi" unicode="&#58902;" d="M509.703 195.45c-108.226 0-191.008 82.781-191.008 191.059 0 108.226 82.782 191.008 191.008 191.008 108.277 0 191.059-82.782 191.059-191.008 0-108.278-82.782-191.06-191.06-191.06z m0 318.431A127.731 127.731 0 0 1 382.38 386.51a127.731 127.731 0 0 1 127.322-127.373 127.731 127.731 0 0 1 127.372 127.373A127.731 127.731 0 0 1 509.703 513.83zM637.075-122.88H382.381c-19.096 0-31.843 12.696-31.843 31.792V29.936c-25.495 12.697-50.94 25.444-70.035 38.192L178.625 4.44a33.584 33.584 0 0 0-44.59 12.748L6.662 240.04C-6.035 259.136 0.314 278.231 19.46 284.58l101.878 63.686V424.7L19.41 488.386C0.262 494.735-6.086 513.83 6.611 532.926l127.372 222.902c6.349 12.697 25.495 19.096 44.54 6.349L280.4 698.49c19.147 12.748 44.59 31.843 70.086 38.243V864.054c0 19.096 12.747 31.844 31.843 31.844h254.694c19.096 0 31.844-12.748 31.844-31.844v-120.973c25.443-12.748 50.938-25.495 70.034-38.191l101.878 63.635a33.584 33.584 0 0 0 44.54-12.697l127.372-222.902c12.748-19.096 6.4-38.191-12.747-44.54L898.067 424.7v-76.434l101.878-63.635c12.799-6.4 19.147-25.495 12.799-44.54L885.37 17.19c-6.4-12.748-25.495-19.096-44.591-12.748l-101.878 63.687c-19.096-12.748-44.54-31.844-70.034-38.192v-121.024c0-19.096-12.748-31.793-31.844-31.793z m-222.85 63.635h191.007V49.032c0 12.696 6.348 25.444 19.096 31.843a405.975 405.975 0 0 1 89.13 50.939 40.598 40.598 0 0 0 38.243 0l95.478-57.338 95.53 165.564-95.53 57.338c-12.696 12.697-19.095 25.444-12.696 38.192 0 19.095 6.348 31.843 6.348 50.939s0 31.843-6.348 50.938a48.635 48.635 0 0 0 12.696 31.844l95.53 57.338-95.53 165.513-95.478-57.338a40.598 40.598 0 0 0-38.243 0 405.975 405.975 0 0 1-89.079 50.99c-12.799 12.696-19.147 25.444-19.147 38.191V832.211H414.224v-108.226a35.017 35.017 0 0 0-19.147-31.843 405.975 405.975 0 0 1-89.079-50.939 40.598 40.598 0 0 0-38.242 0l-95.53 50.939-95.478-165.564 95.478-57.339c12.748-6.348 19.096-19.044 12.748-31.792 0-19.095-6.349-31.843-6.349-50.938s0-31.844 6.349-50.94c6.348-12.747 0-25.494-12.748-31.843l-95.478-57.338 95.478-165.513 95.53 57.287a40.598 40.598 0 0 0 38.191 0 405.975 405.975 0 0 1 89.13-50.939 35.017 35.017 0 0 0 19.147-31.843v-114.625z"  horiz-adv-x="1024" />

    
    <glyph glyph-name="low" unicode="&#59004;" d="M535.987273 531.916569c23.988296-21.586601 41.979006-38.266459 53.973154-50.04162l25.487437 23.549298c-17.991734 17.661206-36.481816 33.851925-55.472295 48.569085L535.987273 531.916569zM576.467138 386.20829l25.487437 25.02081c-16.991965 15.699532-34.483303 29.92653-52.474014 42.682016-1.998513 1.961674-3.498677 3.434209-4.497422 4.415557l-23.988296-23.549298C541.984858 419.077843 560.474941 402.888148 576.467138 386.20829zM529.989687 222.83778199999995l34.483303-11.774138c2.998281 12.755486 9.495239 34.83225 19.490874 66.231315 7.996099 28.455019 13.992661 49.550434 17.991734 63.287269-14.992429 4.90572-25.986809 8.831115-32.983139 11.774138C552.978215 292.50330599999995 539.985322 249.330104 529.989687 222.83778199999995zM765.373178 461.269697L868.822065 461.269697 868.822065 483.34646 765.373178 483.34646 765.373178 508.36727 879.317072 508.36727 879.317072 531.916569 765.373178 531.916569 765.373178 559.880401 730.890898 559.880401 730.890898 531.916569 625.942871 531.916569 625.942871 508.36727 730.890898 508.36727 730.890898 483.34646 634.938738 483.34646 634.938738 461.269697 730.890898 461.269697 730.890898 436.248887 616.947004 436.248887 616.947004 412.700612 886.813799 412.700612 886.813799 436.248887 765.373178 436.248887ZM859.826198 389.151313L639.436159 389.151313l0-179.560203 32.983139 0 0 60.344246 154.42376 0 0-11.774138c0.999768-13.736835-7.996099-20.11509-26.986577-19.133741-21.98876 0-38.980725 0.490163-50.974873 1.471511 4.997817-10.792789 7.996099-20.605252 8.995867-29.436367 5.997586 0 15.992197 0.490163 29.984858 1.471511l25.487437 0c31.984395 0 47.476196 14.226998 46.476428 42.682016L859.826198 389.151313zM826.843059 292.01212L672.419299 292.01212 672.419299 318.50444100000004l154.42376 0L826.843059 292.01212zM826.843059 339.109693L672.419299 339.109693l0 26.492321 154.42376 0L826.843059 339.109693zM453.528401 371.49010699999997l-29.984858-11.774138c4.997817-11.774138 12.49352-28.455019 22.489155-50.04162 12.993916-27.47367 22.489155-47.587736 28.485718-60.344246l31.483999 10.302626c-4.997817 10.792789-12.49352 26.492321-22.489155 47.097574C470.519343 335.18532200000004 460.524731 356.771923 453.528401 371.49010699999997zM306.601367 371.49010699999997c-15.992197-37.286133-34.982676-74.571244-56.971435-111.857377 1.999536-0.981349 5.49719-2.45286 10.495007-4.415557 9.994612-2.944046 16.991965-5.396906 20.990015-7.35858 16.991965 30.417716 35.982444 68.192989 56.971435 113.328888L306.601367 371.49010699999997zM287.110493 534.859591l196.402766 0 0-29.436367-196.402766 0 0 29.436367ZM401.054387 403.869497l98.951465 0 0 30.907879L270.618923 434.777375l0-30.907879 95.952161 0 0-138.349698c0.999768-14.718184-6.496958-21.586601-22.489155-20.605252-15.992197 0-28.485718 0.490163-37.481585 1.471511 0.792037-2.723012 1.444905-4.954839 1.962697-6.713899-0.151449 0.755198-0.303921 1.516537-0.463557 2.298341 2.403741-8.654083 2.557237-9.415422 0.463557-2.298341 2.68822-13.442123 4.034888-22.492225 4.034888-27.137003l43.478147 0c30.984626 0.981349 45.977056 15.208346 44.977287 42.682016L401.054387 403.869497zM279.61479 368.546061c-14.992429 14.718184-29.984858 28.945181-44.977287 42.682016l-11.994148-11.774138 0 58.871711 41.979006 0 0 29.436367-41.979006 0 0 72.118383-31.483999 0 0-72.118383-46.477451 0 0-29.436367 46.477451 0 0-1.471511c-13.992661-48.078922-31.984395-86.345381-53.973154-114.8004 1.998513-6.868417 4.497422-17.661206 7.496726-32.37939 0.999768-5.887069 1.998513-9.812464 2.998281-11.774138 18.990478 28.455019 33.483535 57.4002 43.478147 86.836567L191.159356 208.12062200000003l31.483999 0L222.643355 384.735756l34.483303-39.738993L279.61479 368.546061zM927.985418 687.79342L96.014582 687.79342c-34.976536 0-63.688404-27.077651-63.688404-60.479322l0-486.628197c0-33.191894 28.51437-60.479322 63.688404-60.479322L927.985418 80.20658000000003c34.977559 0 63.688404 27.077651 63.688404 60.479322L991.673822 627.3140980000001C991.673822 660.507015 963.159452 687.79342 927.985418 687.79342zM943.70644 140.68590200000006c0-8.144478-7.139593-14.909542-15.721022-14.909542L96.014582 125.77635999999995c-8.585522 0-15.721022 6.792693-15.721022 14.909542L80.29356 627.3140980000001c0 8.144478 7.140616 14.910565 15.721022 14.910565L927.985418 642.224663c8.585522 0 15.721022-6.792693 15.721022-14.910565L943.70644 140.68590200000006z"  horiz-adv-x="1024" />

    
    <glyph glyph-name="middle" unicode="&#59007;" d="M927.985418 687.79342L96.014582 687.79342c-34.976536 0-63.688404-27.077651-63.688404-60.479322l0-486.628197c0-33.191894 28.51437-60.479322 63.688404-60.479322L927.985418 80.20658000000003c34.977559 0 63.688404 27.077651 63.688404 60.479322L991.673822 627.3140980000001C991.673822 660.507015 963.159452 687.79342 927.985418 687.79342zM943.70644 140.68590200000006c0-8.144478-7.139593-14.909542-15.721022-14.909542L96.014582 125.77635999999995c-8.585522 0-15.721022 6.792693-15.721022 14.909542L80.29356 627.3140980000001c0 8.144478 7.140616 14.910565 15.721022 14.910565L927.985418 642.224663c8.585522 0 15.721022-6.792693 15.721022-14.910565L943.70644 140.68590200000006zM534.485062 530.445057c23.984203-21.586601 41.971843-38.266459 53.962921-50.04162l25.483343 23.549298c-17.98764 17.66223-36.475677 33.850901-55.462062 48.569085L534.485062 530.445057zM574.956741 384.735756l25.48232 25.02081c-16.988896 15.699532-34.47614 29.92653-52.463781 42.682016-1.998513 1.962697-3.49663 3.434209-4.496398 4.415557l-23.984203-23.549298C540.480601 417.605308 558.967614 401.415613 574.956741 384.735756zM528.489523 221.36627099999998l34.477164-11.774138c2.998281 12.755486 9.493193 34.83225 19.486781 66.231315 7.994052 28.455019 13.990614 49.550434 17.98764 63.287269-14.989359 4.90572-25.982716 8.831115-32.978023 11.774138C551.472934 291.03077099999996 538.482088 247.85859200000004 528.489523 221.36627099999998zM763.829012 459.798185L867.258456 459.798185 867.258456 481.874949 763.829012 481.874949 763.829012 506.895759 877.751417 506.895759 877.751417 530.445057 763.829012 530.445057 763.829012 558.4088899999999 729.352872 558.4088899999999 729.352872 530.445057 624.424287 530.445057 624.424287 506.895759 729.352872 506.895759 729.352872 481.874949 633.418108 481.874949 633.418108 459.798185 729.352872 459.798185 729.352872 434.777375 615.429444 434.777375 615.429444 411.228077 885.246097 411.228077 885.246097 434.777375 763.829012 434.777375ZM858.264636 387.679802L637.914506 387.679802l0-179.560203 32.978023 0 0 60.344246 154.395107 0 0-11.774138c0.999768-13.736835-7.994052-20.11509-26.981461-19.133741-21.984666 0-38.973562 0.490163-50.965663 1.471511 4.996794-10.792789 7.994052-20.605252 8.99382-29.436367 5.995539 0 15.989127 0.490163 29.979742 1.471511l25.483343 0c31.978255 0 47.46801 14.226998 46.468242 42.682016L858.264636 387.679802zM825.287636 290.540608L670.892529 290.540608l0 26.492321 154.395107 0L825.287636 290.540608zM825.287636 337.63818200000003L670.892529 337.63818200000003l0 26.492321 154.395107 0L825.287636 337.63818200000003zM333.621713 559.880401L294.648151 556.937379 303.641971 526.0295 138.753903 526.0295 138.753903 498.064644 500.008922 498.064644 500.008922 526.0295 342.615533 526.0295ZM402.575017 324.39253299999996L237.686949 324.39253299999996l0-75.06243 164.888068 0L402.575017 324.39253299999996zM369.596994 269.93535599999996l-100.432186 0 0 32.37939 100.432186 0L369.596994 269.93535599999996zM197.214246 474.516369l0-75.061406 245.83245 0 0 75.061406L197.214246 474.516369zM408.570556 423.003238L230.192269 423.003238l0 27.963833 178.378287 0L408.570556 423.003238zM482.021282 375.905664L158.240684 375.905664l0-166.313531 32.978023 0L191.218707 349.41232 447.544118 349.41232l0-89.77959c0.999768-13.736835-7.994052-20.11509-26.981461-19.133741l-41.971843 0c0.999768-2.944046 1.998513-7.35858 2.998281-13.246672 1.998513-7.849766 3.497654-13.246672 4.497422-16.189695l52.464804 0c29.979742 0.981349 44.469729 15.208346 43.470984 42.682016L482.021282 375.905664z"  horiz-adv-x="1024" />

    
    <glyph glyph-name="high" unicode="&#59020;" d="M535.549298 531.916569c23.549298-21.586601 41.210505-38.266459 52.984642-50.04162l25.02081 23.548275c-17.66223 17.66223-35.813599 33.851925-54.457177 48.570108L535.549298 531.916569zM544.380413 458.326674l-23.549298-23.549298c20.605252-15.699532 38.757645-31.889227 54.457177-48.569085l25.02081 25.02081c-16.680881 15.699532-33.850901 29.92653-51.513131 42.682016C546.833273 455.872791 545.360739 457.345325 544.380413 458.326674zM529.66223 222.83778199999995l33.850901-11.774138c2.944046 12.755486 9.321278 34.83225 19.133741 66.231315 7.849766 28.455019 13.736835 49.550434 17.661206 63.287269-14.718184 4.90572-25.510973 8.831115-32.37939 11.774138C552.229156 292.50228200000004 539.47367 249.330104 529.66223 222.83778199999995zM760.734541 461.269697L862.289291 461.269697 862.289291 483.34646 760.734541 483.34646 760.734541 508.36727 872.591917 508.36727 872.591917 531.916569 760.734541 531.916569 760.734541 559.880401 726.883639 559.880401 726.883639 531.916569 623.857377 531.916569 623.857377 508.36727 726.883639 508.36727 726.883639 483.34646 632.687469 483.34646 632.687469 461.269697 726.883639 461.269697 726.883639 436.248887 615.026262 436.248887 615.026262 412.700612 879.950498 412.700612 879.950498 436.248887 760.734541 436.248887ZM853.458176 389.151313L853.458176 389.151313 637.103026 389.151313l0-179.560203 32.37939 0 0 60.343223 151.595347 0 0-11.774138c0.981349-13.736835-7.849766-20.11509-26.492321-19.133741-21.586601 0-38.266459 0.490163-50.04162 1.471511 4.90572-10.792789 7.849766-20.605252 8.831115-29.436367 5.887069 0 15.699532 0.490163 29.436367 1.471511l25.02081 0c31.399065 0 46.607411 14.226998 45.626062 42.682016L853.458176 389.151313zM821.078786 292.01212L669.483439 292.01212 669.483439 318.50444100000004l151.595347 0L821.078786 292.01212zM821.078786 339.109693L669.483439 339.109693l0 26.492321 151.595347 0L821.078786 339.109693zM307.42001 434.777375c7.849766-7.849766 14.718184-15.699532 20.605252-23.549298 41.210505 22.56795 62.30592 57.4002 63.287269 104.497774l61.815757 0c0-14.718184-0.490163-28.945181-1.471511-42.682016 0-16.680881-8.339929-24.530647-25.02081-23.548275l-36.794947 0 4.415557-27.964856 42.682016 0c29.436367 0 44.153528 16.189695 44.153528 48.569085 0.981349 10.792789 1.962697 26.982484 2.944046 48.569085 0.981349 11.774138 1.471511 20.11509 1.471511 25.02081L314.778591 543.6896830000001l0-27.963833 45.626062 0C362.36735 479.422089 344.705121 452.438582 307.42001 434.777375zM323.609705 275.82242499999995l156.010905 0L479.62061 395.038382 323.609705 395.038382 323.609705 275.82242499999995zM354.517584 368.546061l94.195147 0 0-64.759803-94.195147 0L354.517584 368.546061zM258.849902 253.74566100000004l0 63.287269 44.153528 0 0 29.436367-44.153528 0 0 55.928688 45.626062 0 0 29.436367-55.928688 0L248.547276 481.874949l48.569085 0 0 29.436367-48.569085 0 0 48.569085-32.37939 0 0-48.569085-55.928688 0 0-29.436367 55.928688 0 0-50.04162-67.702826 0 0-29.436367 79.476964 0 0-130.990095c-11.774138 11.774138-22.076764 27.47367-30.907879 47.097574 0.981349 5.887069 1.471511 15.699532 1.471511 29.436367 0.981349 13.736835 1.471511 24.039461 1.471511 30.907879l-29.436367 1.471511c1.962697-68.684175-6.868417-118.725794-26.492321-150.123836 0.981349-0.981349 2.944046-2.944046 5.887069-5.887069 7.849766-7.849766 13.246672-13.246672 16.189695-16.189695 13.736835 26.492321 22.076764 49.060271 25.02081 67.702826 19.623904-38.266459 63.287269-57.4002 130.990095-57.4002 24.530647-0.981349 66.231315-0.981349 125.103026 0l45.626062 0c0.981349 7.849766 4.415557 18.152392 10.302626 30.907879-18.642555-0.981349-77.024104-1.471511-175.144646-1.471511C299.570244 248.83994099999995 276.512132 250.80161499999997 258.849902 253.74566100000004zM927.985418 687.79342L96.014582 687.79342c-34.976536 0-63.688404-27.077651-63.688404-60.479322l0-486.628197c0-33.191894 28.51437-60.479322 63.688404-60.479322L927.985418 80.20658000000003c34.977559 0 63.688404 27.077651 63.688404 60.479322L991.673822 627.3140980000001C991.673822 660.507015 963.159452 687.79342 927.985418 687.79342zM943.70644 140.68590200000006c0-8.144478-7.139593-14.909542-15.721022-14.909542L96.014582 125.77635999999995c-8.585522 0-15.721022 6.792693-15.721022 14.909542L80.29356 627.3140980000001c0 8.144478 7.140616 14.910565 15.721022 14.910565L927.985418 642.224663c8.585522 0 15.721022-6.792693 15.721022-14.910565L943.70644 140.68590200000006z"  horiz-adv-x="1024" />

    
    <glyph glyph-name="light" unicode="&#58885;" d="M160.6 384c0 19.1-15.5 34.6-34.6 34.6H34.6C15.5 418.6 0 403.1 0 384s15.5-34.6 34.6-34.6H126c19.1 0 34.6 15.5 34.6 34.6z m30.8-273l-65.6-63.8c-13.5-13.4-13.6-35.3-0.1-48.8l0.1-0.1 1.3-0.5c13.4-13.5 35.3-13.6 48.8-0.1l0.1 0.1 64.4 64.4c13.5 13.5 13.5 35.4 0 48.9-13.6 13.4-35.5 13.4-49-0.1z m641.2 546l65.6 63.8c13.5 13.4 13.6 35.3 0.1 48.8l-0.1 0.1-1.3 0.5c-13.4 13.5-35.3 13.6-48.8 0.1l-0.1-0.1-64.4-64.4c-13.5-13.5-13.5-35.4 0-48.9 13.6-13.4 35.5-13.4 49 0.1z m-320.7 78.8h0.3c19.1 0 34.5 15.4 34.5 34.5V861.4C546.6 880.5 531.1 896 512 896s-34.6-15.5-34.6-34.6v-91.1c0-19.1 15.4-34.5 34.5-34.5z m-316.7-79c13.4-13.5 35.3-13.6 48.8-0.1l0.1 0.1 0.3-1c13.5 13.4 13.6 35.3 0.1 48.8l-0.1 0.1-62 65.9c-13.2 13.8-35.1 14.3-48.9 1-13.8-13.2-14.3-35.1-1-48.9l62.7-65.9z m633.6-545.6c-13.4 13.5-35.3 13.6-48.8 0.1l-0.1-0.1-0.3 1c-13.5-13.4-13.6-35.3-0.1-48.8l0.1-0.1 62-65.9c13.2-13.8 35.1-14.3 48.9-1 13.8 13.2 14.3 35.1 1 48.9l-62.7 65.9z m160.6 307.4h-91.1c-19.1 0-34.6-15.5-34.6-34.6s15.5-34.6 34.6-34.6h91.1c19.1 0 34.6 15.5 34.6 34.6s-15.5 34.6-34.6 34.6zM511.1 654.9c-149.4 0-270.9-121.5-270.9-270.9s121.5-270.9 270.9-270.9S781.9 234.60000000000002 781.9 384 660.4 654.9 511.1 654.9z m0-461.5c-105.3 0-190.6 85.4-190.6 190.6s85.4 190.6 190.6 190.6S701.7 489.3 701.7 384s-85.4-190.6-190.6-190.6z m1-161.2h-0.3c-19.1 0-34.5-15.4-34.5-34.5v-91.1c0-19.1 15.5-34.6 34.6-34.6s34.6 15.5 34.6 34.6v91.1c0.1 19.1-15.3 34.5-34.4 34.5z"  horiz-adv-x="1024" />

    
    <glyph glyph-name="new" unicode="&#58898;" d="M719.36 138.752h-414.72C173.568 138.752 66.56 245.76 66.56 376.832s107.008 238.08 238.08 238.08h414.72c131.072 0 238.08-107.008 238.08-238.08s-107.008-238.08-238.08-238.08zM200.704 266.752v240.64h33.792l77.312-121.856c17.92-28.16 31.744-53.76 43.008-78.336l0.512 0.512c-3.072 32.256-3.584 61.44-3.584 98.816V507.392h29.184v-240.64h-31.232L273.408 389.12c-16.896 26.624-32.768 54.272-45.056 80.384l-1.024-0.512c1.536-30.208 2.56-59.392 2.56-99.328v-102.912h-29.184zM452.096 347.648c0.512-42.496 27.648-59.904 59.392-59.904 22.528 0 35.84 4.096 47.616 8.704l5.12-22.528c-11.264-5.12-30.208-10.752-57.344-10.752-53.248 0-84.992 34.816-84.992 87.04s30.72 93.184 80.896 93.184c56.32 0 71.168-49.664 71.168-81.408 0-6.656-0.512-11.264-1.024-14.848H452.096z m92.16 22.528c0.512 19.968-8.192 51.2-43.52 51.2-31.744 0-45.568-29.184-48.128-51.2h91.648zM626.176 439.808l23.04-88.064c5.12-19.456 9.728-37.376 12.8-54.784h1.024c4.096 17.408 9.728 35.84 15.36 54.784l28.16 88.064h26.624l26.624-86.528c6.656-20.48 11.264-38.912 15.36-56.32h1.024c3.072 17.408 7.68 35.84 13.312 56.32l24.576 86.528h31.232l-55.808-173.056h-28.672l-26.624 82.432c-6.144 19.456-11.264 36.352-15.36 56.832h-0.512c-4.096-20.48-9.728-38.4-15.872-57.344l-27.648-81.92h-28.672L593.92 439.808h32.256z"  horiz-adv-x="1024" />

    
    <glyph glyph-name="xiangzuofanhui" unicode="&#58904;" d="M384 676.266667h268.8c169.661867 0 307.2-137.538133 307.2-307.2v-125.866667c0-169.661867-137.538133-307.2-307.2-307.2H162.133333c-18.8512 0-34.133333 15.282133-34.133333 34.133333 0 18.8512 15.282133 34.133333 34.133333 34.133334h490.666667c131.959467 0 238.933333 106.973867 238.933333 238.933333V369.066667c0 131.959467-106.973867 238.933333-238.933333 238.933333H384v-95.732267l-0.315733-0.176C383.317333 482.523733 359.2 458.666667 329.504 458.666667c-11.995733 0-23.080533 3.892267-32.0576 10.481066L95.713067 595.182933C77.003733 603.7088 64 622.5536 64 644.430933c0 21.8208 12.9344 40.624 31.565867 49.181867l0.0832 3.015467L303.666133 826.589867l0.946134-0.624C312.064 829.821867 320.530133 832 329.504 832c29.925333 0 54.184533-24.224 54.184533-54.106667 0-1.341867-0.049067-2.673067-0.145066-3.991466l0.456533-0.301867V676.266667z"  horiz-adv-x="1024" />

    
    <glyph glyph-name="liuyan" unicode="&#58944;" d="M0.682667 424.1408c0-145.885867 83.831467-280.302933 224.0512-361.813333l-16.9984 29.4912v-130.048c0-20.6848 11.605333-39.594667 30.037333-49.152a56.9344 56.9344 0 0 1 56.866133 2.389333l61.0304 39.185067c3.959467 2.730667 3.959467 2.730667 6.894934 5.256533l66.082133 42.257067-24.7808-4.9152c36.727467-6.826667 73.3184-10.24 108.885333-10.24 281.122133 0 511.931733 194.901333 511.931734 437.589333C1024.682667 666.965333 793.873067 861.866667 512.682667 861.866667 231.424 861.866667 0.682667 666.965333 0.682667 424.1408z m955.733333 0c0-202.205867-197.973333-369.322667-443.733333-369.322667-31.266133 0-63.624533 3.003733-96.256 9.079467l-13.380267 2.525867-11.4688-7.3728-70.0416-45.329067a20.753067 20.753067 0 0 1-2.389333-1.8432l-61.303467-39.3216a11.4688 11.4688 0 0 0 11.741867 0.4096 12.629333 12.629333 0 0 0 6.417066-11.195733v149.640533l-16.930133 9.898667C139.127467 191.0784 68.949333 303.581867 68.949333 424.1408c0 202.274133 197.973333 369.4592 443.733334 369.4592s443.733333-167.185067 443.733333-369.4592zM324.266667 486.4a51.2 51.2 0 1 1 0-102.4 51.2 51.2 0 0 1 0 102.4z m204.8 0a51.2 51.2 0 1 1 0-102.4 51.2 51.2 0 0 1 0 102.4z m204.8 0a51.2 51.2 0 1 1 0-102.4 51.2 51.2 0 0 1 0 102.4z"  horiz-adv-x="1024" />

    
    <glyph glyph-name="xinaixin" unicode="&#58883;" d="M969.04 722.632a289.66 289.66 0 0 1-397.153 8.732 289.66 289.66 0 0 1-397.153-8.732 283.637 283.637 0 0 1 0-403.777L507.451-10.85a90.33 90.33 0 0 1 128.872 0L969.04 318.554a283.637 283.637 0 0 1 0 404.078z m-43.058-361.321L593.265 31.605a30.11 30.11 0 0 0-42.756 0L217.49 361.31a224.02 224.02 0 0 0 0 318.866 228.536 228.536 0 0 0 313.446 5.119l40.95-35.23 40.649 35.23a228.536 228.536 0 0 0 313.446-6.625 224.02 224.02 0 0 0 0-317.36zM368.644 655.186a127.968 127.968 0 0 1-127.968-127.969 15.055 15.055 0 0 1 30.11 0 97.858 97.858 0 0 0 97.858 97.858 15.055 15.055 0 0 1 0 30.11z"  horiz-adv-x="1170" />

    
    <glyph glyph-name="fenxiang" unicode="&#58947;" d="M826.48 235.1c-60.456 0-109.88-32.358-132.9-82.596L401.373 276.797c17.045 26.404 26.41 58.768 26.41 93.666 0 14.459-1.706 28.943-5.12 42.573l186.572 144.752c24.72-18.729 56.253-29.798 91.177-29.798 84.347 0 147.38 63.012 147.38 146.432 0 83.45-63.054 146.462-147.38 146.462-84.352 0-146.535-63.011-146.535-146.462 0-21.29 4.265-40.868 11.07-57.892L392.837 484.567c-34.068 51.087-90.301 86.856-154.194 86.856-104.192 0.26-188.866-83.989-189.122-188.18a23.803 23.803 0 0 1 0-0.856c-0.2-104.192 84.106-188.815 188.298-189.015h0.83c39.188 0 75.811 10.194 105.635 28.928l335.683-143.032c4.27-79.176 65.602-137.923 146.509-137.923 84.372 0 146.554 62.992 146.554 146.437s-63.058 147.313-146.529 147.313h-0.02z"  horiz-adv-x="1024" />

    
    <glyph glyph-name="sousuo" unicode="&#58892;" d="M948.606381-137.702853c-10.901281-10.901281-28.562523-10.901281-39.46278 0L663.79673 107.629691c-63.452147-54.399981-145.758712-87.473237-235.891522-87.473237-200.37768 0-362.816283 162.439626-362.816283 362.815259 0 200.37768 162.438603 362.815259 362.816283 362.815259 200.37461 0 362.814236-162.437579 362.814236-362.815259 0-90.131787-33.059953-172.413791-87.460957-235.863892l245.347894-245.360174C959.507662-109.141354 959.507662-126.815899 948.606381-137.702853zM734.903208 382.97069c0 169.552627-137.446395 306.996976-306.997999 306.996976-169.552627 0-306.999023-137.444349-306.999023-306.996976S258.352581 75.973714 427.905208 75.973714C597.456812 75.973714 734.903208 213.419086 734.903208 382.97069z"  horiz-adv-x="1024" />

    
    <glyph glyph-name="zhengbaozi" unicode="&#60088;" d="M917.189794 633.263158c-21.719579 27.863579-74.428632 68.176842-105.418106 86.770526-15.521684 6.197895-58.906947 31.043368-96.14821 46.511158 18.593684 21.719579 18.593684 80.626526 3.125895 93.022316l-9.32379 9.323789c-3.072 3.072-6.197895 3.072-9.269895 6.197895-6.197895 3.072-9.323789 3.072-18.647579 3.072h-21.665684c-6.197895 0-15.521684-3.072-21.719579-6.197895-30.989474-9.269895-71.302737-68.176842-71.302737-68.176842s-18.593684-18.647579-24.791578-6.197894c3.072 6.197895 24.791579 65.104842 15.467789 80.572631C529.632741 915.402105 476.923688 887.484632 467.599899 856.495158c-6.197895-21.719579-6.197895-43.439158-18.593684-65.158737 0-3.072-9.323789-3.072-9.32379 0 0 18.647579 0 52.709053-24.791579 52.709053-40.313263 0-46.511158-30.989474-40.313263-52.709053 0-3.072 3.125895-9.269895 6.197895-9.269895-127.083789-24.791579-226.357895-136.407579-235.62779-151.929263-40.313263-43.385263-71.302737-96.094316-96.094315-151.929263a546.384842 546.384842 0 0 1-46.511158-198.440421c-3.125895-30.989474-3.125895-65.104842 3.072-96.094316 24.791579-229.429895 313.128421-294.534737 511.568842-300.732631 31.043368 0 65.104842 0 96.14821 3.072 6.197895 0 18.593684 0 27.917474 3.125894 18.593684 0 37.187368 3.072 58.906947 6.197895 9.269895 0 18.593684 3.072 27.863579 3.072 18.593684 3.125895 40.313263 6.197895 58.906948 9.32379 27.917474 6.197895 58.906947 18.593684 83.752421 27.917473 18.593684 6.197895 37.187368 15.467789 49.583158 24.791579 40.313263 21.719579 80.626526 49.583158 105.418105 89.896421 6.197895 9.323789 15.521684 21.719579 21.719579 37.187369 3.072 3.125895 3.072 9.323789 6.197895 15.521684 3.072 6.197895 6.197895 18.593684 9.269894 24.791579 3.125895 6.251789 3.125895 9.323789 3.125895 18.647579 3.072 6.197895 3.072 18.593684 6.197895 24.791579 0 6.197895 0 15.521684 3.072 18.593684 0 6.197895 3.125895 18.593684 3.125895 24.791579 0 176.774737-65.104842 303.858526-161.199158 418.600421"  horiz-adv-x="1078" />

    


  </font>
</defs>
</svg>
